# xmcd
#
# Track frame offsets: 
#        150
#        21630
#        48023
#        62896
#        79351
#        97344
#        113349
#        140177
#        165302
#        182687
#        203747
#
# Disc length: 2927 seconds
#
# Revision: 11
# Processed by: cddbd v1.5.2PL0 Copyright (c) Steve Scherf et al.
# Submitted via: ExactAudioCopy v1.0b4
#
DISCID=980b6d0b
DTITLE=Little Jimmy King - Little Jimmy King And The Soul Memphis Surv
DTITLE=ivors
DYEAR=1991
DGENRE=Memphis Blues, Electric Blues, Soul Blues
TTITLE0=King's Crosstown Shuffle
TTITLE1=Same Lovin'
TTITLE2=Born Again
TTITLE3=Wild Woman
TTITLE4=Every Night
TTITLE5=Another Blues Stringer
TTITLE6=Sex Machine
TTITLE7=Lovin' Someone Else
TTITLE8=Another Man's Cologne
TTITLE9=Doin' My Own Thing
TTITLE10=My Muscadine Wine
EXTD=
EXTT0=
EXTT1=
EXTT2=
EXTT3=
EXTT4=
EXTT5=
EXTT6=
EXTT7=
EXTT8=
EXTT9=
EXTT10=
PLAYORDER=
